# xmcd
#
# Track frame offsets:
#	150
#	11627
#	21915
#	33655
#	43315
#	52992
#	63255
#	74990
#	84647
#	95537
#	105177
#	113900
#	122792
#	135980
#	148652
#	159455
#	168187
#	179560
#	192982
#	203335
#
# Disc length: 2920 seconds
#
# Revision: 0
# Processed by: cddbd v1.5.2PL0 Copyright (c) Steve Scherf et al.
# Submitted via: EZCDAudioConverter 2.1.7.1
#
DISCID=190b6614
DTITLE=Link Wray and The Wraymen - Walkin' With Link
DYEAR=1992
DGENRE=
TTITLE0=Slinky
TTITLE1=Ramble
TTITLE2=Hand Clapper
TTITLE3=Raw-Hide
TTITLE4=Dixie-Doodle
TTITLE5=Studio Blues
TTITLE6=Comanche
TTITLE7=Right Turn
TTITLE8=Radar
TTITLE9=Lillian
TTITLE10=Dance Contest
TTITLE11=Guitar Cha-Cha
TTITLE12=Rumble Mambo
TTITLE13=Ain't That Lovin' You Baby
TTITLE14=Mary Anne
TTITLE15=Comanche [Alternate Take]
TTITLE16=Oh Babe Be Mine
TTITLE17=Ain't That Lovin' You Baby [Alternate Take]
TTITLE18=New Studio Blues
TTITLE19=Walkin' With Link
EXTD=
EXTT0=
EXTT1=
EXTT2=
EXTT3=
EXTT4=
EXTT5=
EXTT6=
EXTT7=
EXTT8=
EXTT9=
EXTT10=
EXTT11=
EXTT12=
EXTT13=
EXTT14=
EXTT15=
EXTT16=
EXTT17=
EXTT18=
EXTT19=
PLAYORDER=
